HIERARCHY
ROOT Hips
{
	OFFSET 0.000000 0.000000 0.000000
	CHANNELS 6 Xposition Yposition Zposition Zrotation Yrotation Xrotation 
	JOINT LHipJoint
	{
		OFFSET 0.000000 0.000000 0.000000
		CHANNELS 3 Zrotation Yrotation Xrotation
		JOINT LeftUpLeg
		{
			OFFSET 1.363060 -1.794630 0.839290
			CHANNELS 3 Zrotation Yrotation Xrotation
			JOINT LeftLeg
			{
				OFFSET 2.448110 -6.726130 0.000000
				CHANNELS 3 Zrotation Yrotation Xrotation
				JOINT LeftFoot
				{
					OFFSET 2.562200 -7.039590 0.000000
					CHANNELS 3 Zrotation Yrotation Xrotation
					JOINT LeftToeBase
					{
						OFFSET 0.157640 -0.433110 2.322550
						CHANNELS 3 Zrotation Yrotation Xrotation
						End Site
						{
							OFFSET 0.000000 0.000000 0.000000
						}
					}
				}
			}
		}
	}
	JOINT RHipJoint
	{
		OFFSET 0.000000 0.000000 0.000000
		CHANNELS 3 Zrotation Yrotation Xrotation
		JOINT RightUpLeg
		{
			OFFSET -1.305520 -1.794630 0.839290
			CHANNELS 3 Zrotation Yrotation Xrotation
			JOINT RightLeg
			{
				OFFSET -2.542530 -6.985550 0.000000
				CHANNELS 3 Zrotation Yrotation Xrotation
				JOINT RightFoot
				{
					OFFSET -2.568260 -7.056230 0.000000
					CHANNELS 3 Zrotation Yrotation Xrotation
					JOINT RightToeBase
					{
						OFFSET -0.164730 -0.452590 2.363150
						CHANNELS 3 Zrotation Yrotation Xrotation
						End Site
						{
							OFFSET 0.000000 0.000000 0.000000
						}
					}
				}
			}
		}
	}
	JOINT LowerBack
	{
		OFFSET 0.000000 0.000000 0.000000
		CHANNELS 3 Zrotation Yrotation Xrotation
		JOINT Spine
		{
			OFFSET 0.028270 2.035590 -0.193380
			CHANNELS 3 Zrotation Yrotation Xrotation
			JOINT Spine1
			{
				OFFSET 0.056720 2.048850 -0.042750
				CHANNELS 3 Zrotation Yrotation Xrotation
				JOINT Neck
				{
					OFFSET 0.000000 0.000000 0.000000
					CHANNELS 3 Zrotation Yrotation Xrotation
					JOINT Neck1
					{
						OFFSET -0.054170 1.746240 0.172020
						CHANNELS 3 Zrotation Yrotation Xrotation
						JOINT Head
						{
							OFFSET 0.104070 1.761360 -0.123970
							CHANNELS 3 Zrotation Yrotation Xrotation
							End Site
							{
								OFFSET 0.000000 0.000000 0.000000
							}
						}
					}
				}
				JOINT LeftShoulder
				{
					OFFSET 0.000000 0.000000 0.000000
					CHANNELS 3 Zrotation Yrotation Xrotation
					JOINT LeftArm
					{
						OFFSET 3.362410 1.200890 -0.311210
						CHANNELS 3 Zrotation Yrotation Xrotation
						JOINT LeftForeArm
						{
							OFFSET 4.983000 -0.000000 -0.000000
							CHANNELS 3 Zrotation Yrotation Xrotation
							JOINT LeftHand
							{
								OFFSET 3.483560 -0.000000 -0.000000
								CHANNELS 3 Zrotation Yrotation Xrotation
								JOINT LeftFingerBase
								{
									OFFSET 0.000000 0.000000 0.000000
									CHANNELS 3 Zrotation Yrotation Xrotation
									JOINT LeftHandIndex1
									{
										OFFSET 0.715260 -0.000000 -0.000000
										CHANNELS 3 Zrotation Yrotation Xrotation
										End Site
										{
											OFFSET 0.000000 0.000000 0.000000
										}
									}
								}
								JOINT LThumb
								{
									OFFSET 0.000000 0.000000 0.000000
									CHANNELS 3 Zrotation Yrotation Xrotation
									End Site
									{
										OFFSET 0.000000 0.000000 0.000000
									}
								}
							}
						}
					}
				}
				JOINT RightShoulder
				{
					OFFSET 0.000000 0.000000 0.000000
					CHANNELS 3 Zrotation Yrotation Xrotation
					JOINT RightArm
					{
						OFFSET -3.136600 1.374050 -0.404650
						CHANNELS 3 Zrotation Yrotation Xrotation
						JOINT RightForeArm
						{
							OFFSET -5.241900 -0.000000 -0.000000
							CHANNELS 3 Zrotation Yrotation Xrotation
							JOINT RightHand
							{
								OFFSET -3.444170 -0.000000 -0.000000
								CHANNELS 3 Zrotation Yrotation Xrotation
								JOINT RightFingerBase
								{
									OFFSET 0.000000 0.000000 0.000000
									CHANNELS 3 Zrotation Yrotation Xrotation
									JOINT RightHandIndex1
									{
										OFFSET -0.622530 -0.000000 -0.000000
										CHANNELS 3 Zrotation Yrotation Xrotation
										End Site
										{
											OFFSET 0.000000 0.000000 0.000000
										}
									}
								}
								JOINT RThumb
								{
									OFFSET 0.000000 0.000000 0.000000
									CHANNELS 3 Zrotation Yrotation Xrotation
									End Site
									{
										OFFSET 0.000000 0.000000 0.000000
									}
								}
							}
						}
					}
				}
			}
		}
	}
}
MOTION
Frames: 9
Frame Time: 0.008333
7.860876 16.971353 0.969006 -5.132568 -77.090186 3.977139 -11.402538 6.049449 1.260221 6.520877 10.808724 9.421537 -0.175417 2.174721 26.659501 0.873179 -0.450320 16.550495 -0.583800 -0.000000 -86.488900 9.710519 -0.834482 -0.132701 10.432397 -16.398487 -22.132568 1.863903 -0.289837 14.529000 -1.852329 -11.535009 3.921971 -3.186899 0.000000 -55.335600 0.803712 -7.240364 -3.664299 -0.153715 -7.524672 -2.566524 -6.020649 -7.433449 3.816434 11.359630 -24.159052 -11.636311 -2.574941 -0.147194 -0.968730 0.000000 0.000000 0.000000 9.300397 13.365577 0.811930 -32.709995 5.525643 8.748120 -1.336118 -55.173031 -0.016975 1.951692 7.330982 0.132395 -0.125177 0.076395 0.000000 0.000000 0.000000 0.000000 0.000000 0.000000 0.000000 20.753639 -23.832774 -0.389281 77.148453 -19.606601 -15.337441 5.107914 14.276264 -0.016548 12.368691 -6.894432 -0.750751 0.047417 0.050551 -0.000000 0.000000 0.000000 0.000000 0.000000 0.000000 0.000000 
7.689922 16.977546 0.945070 -5.839376 -77.086580 4.641287 -11.520980 6.009886 1.203716 7.247964 11.467066 8.150748 -0.038371 2.244671 29.064708 1.014998 -0.263979 18.068816 -0.612100 0.000000 -83.705200 9.657210 -0.920635 -0.108188 10.663608 -16.178018 -21.886541 1.830807 -0.353094 15.456893 -1.889038 -11.602557 3.348857 -3.073400 0.000000 -53.335900 0.985016 -7.129268 -3.655939 -0.132366 -7.423458 -2.583228 -6.055243 -7.334105 3.769812 11.355339 -23.928198 -11.619973 -2.576246 -0.147823 -0.964639 0.000000 0.000000 0.000000 9.130758 13.516795 0.818733 -33.054887 5.773253 8.782338 -1.353065 -55.265445 -0.017006 1.959808 7.309057 0.132611 -0.126560 0.074066 0.000000 0.000000 0.000000 0.000000 0.000000 0.000000 0.000000 20.633254 -23.503332 -0.382237 76.654915 -18.959921 -15.630131 5.066737 14.001810 -0.014885 11.667976 -6.356050 -0.651923 0.051824 0.045263 -0.000000 0.000000 0.000000 0.000000 0.000000 0.000000 0.000000 
7.522876 16.983535 0.921368 -6.514175 -77.070645 5.285862 -11.633126 5.943338 1.136318 7.900304 12.133522 6.783178 0.083480 2.308450 31.549149 1.170337 0.266148 19.305128 -0.485600 -0.000001 -79.816801 9.602961 -0.996974 -0.096455 10.903810 -16.018009 -21.622551 1.806035 -0.404135 16.318076 -1.927627 -11.661565 2.674118 -2.935500 -0.000000 -51.474300 1.146842 -7.024266 -3.619185 -0.114776 -7.326965 -2.594520 -6.088536 -7.239586 3.722384 11.361866 -23.688447 -11.606992 -2.574609 -0.148066 -0.961436 0.000000 0.000000 0.000000 8.959300 13.667864 0.827607 -33.473193 6.061225 8.832616 -1.375408 -55.315617 -0.017133 1.988172 7.305496 0.134526 -0.128302 0.071397 0.000000 0.000000 0.000000 0.000000 0.000000 0.000000 0.000000 20.504692 -23.168400 -0.374954 76.150851 -18.230857 -15.875376 5.018629 13.768098 -0.012993 10.937284 -5.707500 -0.547891 0.056246 0.039264 -0.000000 0.000000 0.000000 0.000000 0.000000 0.000000 0.000000 
7.360083 16.989279 0.897687 -7.091743 -77.039841 5.834855 -11.731166 5.851623 1.055351 8.442163 12.775940 5.361938 0.187375 2.372257 34.065298 1.330690 1.171525 20.156654 -0.172700 -0.000001 -74.882600 9.553566 -1.062541 -0.101545 11.127720 -15.928309 -21.315276 1.787381 -0.443336 17.085178 -1.966182 -11.708554 1.936648 -2.779300 0.000000 -49.921600 1.272655 -6.924182 -3.544749 -0.105361 -7.232608 -2.598028 -6.122163 -7.147144 3.673078 11.381825 -23.439998 -11.596480 -2.572496 -0.148137 -0.959055 0.000000 0.000000 0.000000 8.791557 13.815144 0.838849 -33.955536 6.368858 8.917679 -1.403267 -55.306238 -0.017330 2.030761 7.316872 0.137639 -0.130325 0.068262 0.000000 0.000000 0.000000 0.000000 0.000000 0.000000 0.000000 20.384051 -22.826645 -0.368844 75.642602 -17.448504 -16.056549 4.963430 13.632467 -0.010962 10.202228 -4.985942 -0.445656 0.060515 0.032787 -0.000000 0.000000 0.000000 0.000000 0.000000 0.000000 0.000000 
7.201053 16.995110 0.874456 -7.616261 -76.973655 6.343253 -11.818056 5.738940 0.967229 8.886709 13.382502 3.861227 0.274051 2.441150 36.601122 1.489702 2.422220 20.554903 0.315700 -0.000000 -69.167100 9.504498 -1.121364 -0.118724 11.353540 -15.902394 -20.955286 1.776630 -0.466759 17.713938 -2.007027 -11.765267 1.170085 -2.617700 -0.000000 -48.626100 1.376687 -6.832766 -3.447186 -0.099517 -7.145149 -2.596841 -6.152745 -7.061651 3.623632 11.404864 -23.196875 -11.587479 -2.567823 -0.147898 -0.957068 0.000000 0.000000 0.000000 8.614913 13.943541 0.852219 -34.494849 6.708798 9.037881 -1.436921 -55.241710 -0.017555 2.069807 7.348106 0.140952 -0.132399 0.064583 0.000000 0.000000 0.000000 0.000000 0.000000 0.000000 0.000000 20.251955 -22.496475 -0.362736 75.129678 -16.602252 -16.139788 4.904099 13.563925 -0.008792 9.474847 -4.176586 -0.346019 0.064672 0.025823 -0.000000 0.000000 0.000000 0.000000 0.000000 0.000000 0.000000 
7.045822 17.001131 0.851585 -8.044762 -76.877650 6.761193 -11.889518 5.609206 0.870995 9.211709 13.935242 2.315342 0.345456 2.519080 39.104036 1.642379 3.971401 20.454220 0.944399 -0.000000 -62.969500 9.459553 -1.173580 -0.147792 11.562720 -15.932870 -20.531089 1.771187 -0.475905 18.192255 -2.049563 -11.833915 0.410154 -2.457800 -0.000000 -47.703100 1.449799 -6.746007 -3.323768 -0.100126 -7.059746 -2.590118 -6.182065 -6.978125 3.573209 11.431530 -22.957396 -11.578631 -2.562721 -0.147558 -0.955259 0.000000 0.000000 0.000000 8.431781 14.053711 0.867876 -35.082236 7.056751 9.208421 -1.476616 -55.104766 -0.017781 2.095483 7.397254 0.143763 -0.134445 0.060219 0.000000 0.000000 0.000000 0.000000 0.000000 0.000000 0.000000 20.119915 -22.173230 -0.357531 74.616377 -15.723266 -16.118441 4.841574 13.609133 -0.006584 8.781489 -3.324961 -0.254680 0.068583 0.018634 -0.000000 0.000000 0.000000 0.000000 0.000000 0.000000 0.000000 
6.893976 17.007672 0.829296 -8.378506 -76.752500 7.094120 -11.945818 5.467024 0.770688 9.413430 14.425280 0.729888 0.404432 2.607026 41.536023 1.786347 5.735151 19.850956 1.646600 0.000000 -56.676300 9.418429 -1.221050 -0.184578 11.754457 -16.006200 -20.044832 1.770446 -0.471048 18.512001 -2.094307 -11.920579 -0.321629 -2.305400 -0.000000 -47.113700 1.495110 -6.661657 -3.183389 -0.106374 -6.974322 -2.579651 -6.209726 -6.894498 3.522118 11.456919 -22.723744 -11.568346 -2.557173 -0.147162 -0.953189 0.000000 0.000000 0.000000 8.236830 14.143264 0.885761 -35.710091 7.405573 9.435033 -1.522604 -54.890358 -0.017981 2.092918 7.466399 0.145171 -0.136333 0.055056 0.000000 0.000000 0.000000 0.000000 0.000000 0.000000 0.000000 19.982981 -21.858310 -0.352864 74.102854 -14.825263 -15.987594 4.778170 13.770952 -0.004383 8.141211 -2.452325 -0.173641 0.072205 0.011356 -0.000000 0.000000 0.000000 0.000000 0.000000 0.000000 0.000000 
6.745064 17.014969 0.808017 -8.648372 -76.598313 7.380578 -11.989695 5.316414 0.673338 9.496165 14.843989 -0.901355 0.453283 2.703685 43.867564 1.920405 7.608441 18.771293 2.339200 0.000000 -50.646500 9.377983 -1.266509 -0.222710 11.939202 -16.103877 -19.507147 1.774787 -0.451923 18.667005 -2.142527 -12.034328 -1.009649 -2.165600 0.000000 -46.778499 1.523476 -6.577671 -3.041335 -0.115314 -6.887604 -2.568879 -6.234124 -6.809586 3.470146 11.474228 -22.504480 -11.555282 -2.550146 -0.146681 -0.950376 0.000000 0.000000 0.000000 8.018590 14.203609 0.905366 -36.369814 7.765026 9.715180 -1.574744 -54.606572 -0.018142 2.045071 7.561328 0.144176 -0.137905 0.048984 0.000000 0.000000 0.000000 0.000000 0.000000 0.000000 0.000000 19.830237 -21.559340 -0.347540 73.583755 -13.917903 -15.707241 4.715339 14.050440 -0.002239 7.559332 -1.578087 -0.103302 0.075561 0.004176 -0.000000 0.000000 0.000000 0.000000 0.000000 0.000000 0.000000 
6.598574 17.023295 0.787866 -8.841508 -76.428267 7.612142 -12.020828 5.161089 0.581974 9.453337 15.190959 -2.564328 0.492907 2.805663 46.062169 2.043730 9.487358 17.267993 2.943000 0.000000 -45.140600 9.339530 -1.310698 -0.257485 12.110069 -16.208739 -18.931943 1.783042 -0.420637 18.672069 -2.193498 -12.170154 -1.646901 -2.038900 0.000000 -46.620700 1.533307 -6.489636 -2.905347 -0.127476 -6.795048 -2.559292 -6.255448 -6.718890 3.417304 11.481818 -22.297135 -11.538198 -2.541655 -0.146154 -0.946490 0.000000 0.000000 0.000000 7.774246 14.240803 0.926610 -37.054275 8.125920 10.051311 -1.633094 -54.250765 -0.018268 1.940598 7.683871 0.139677 -0.139105 0.041935 0.000000 0.000000 0.000000 0.000000 0.000000 0.000000 0.000000 19.660508 -21.271020 -0.341262 73.056554 -13.019415 -15.276448 4.654118 14.457101 -0.000201 7.044926 -0.731366 -0.044164 0.078626 -0.002727 -0.000000 0.000000 0.000000 0.000000 0.000000 0.000000 0.000000 
